# xmcd CD database file
#
# Track frame offsets:
#	150
#	14124
#	29821
#	45093
#	57824
#	70743
#	90452
#	105808
#	136181
#	170982
#	199422
#	213305
#	228395
#	251072
#	265887
#
# Disc length: 3703 seconds
#
# Revision: 1
# Processed by: cddbd v1.5.2PL0 Copyright (c) Steve Scherf et al.
# Submitted via: CDex 1.70beta2
#
DISCID=d20e750f
DTITLE=Qvar - Finement Jazz
DYEAR=2004
DGENRE=Jazz
TTITLE0=Ken Miller - Big easy Rag
TTITLE1=Jery Mengo - Chicago '36
TTITLE2=Jery Mengo - Uptown Jive
TTITLE3=Stéphane Grappelli - Gerba
TTITLE4=Stéphane Grappelli - Errol
TTITLE5=Chet Baker - Blues for Inge
TTITLE6=Johnny Hawksworth - Racer
TTITLE7=Georges Kahn - Miles Journey
TTITLE8=Frank Loef - Casa Azul
TTITLE9=Scooter Pietsch - Jame's Club
TTITLE10=Sydney James - Blue Note
TTITLE11=Victor Davies - Swing Town
TTITLE12=Hans Posegga - The Days Of Happiness
TTITLE13=The Golden Gate Quartet - Nobody Knows The Trouble I've Seen
TTITLE14=The Golden Gate Quartet - My Time's Done Come
EXTD=YEAR: 2004
EXTT0=
EXTT1=
EXTT2=
EXTT3=
EXTT4=
EXTT5=
EXTT6=
EXTT7=
EXTT8=
EXTT9=
EXTT10=
EXTT11=
EXTT12=
EXTT13=
EXTT14=
PLAYORDER=
